<mxfile host="Electron" agent="Mozilla/5.0 (Windows NT 10.0; Win64; x64) AppleWebKit/537.36 (KHTML, like Gecko) draw.io/24.7.17 Chrome/128.0.6613.36 Electron/32.0.1 Safari/537.36" version="24.7.17">
  <diagram name="第 1 页" id="mlQ3qh0gFrbTL8Ejq5xi">
    <mxGraphModel dx="819" dy="478" grid="1" gridSize="10" guides="1" tooltips="1" connect="1" arrows="1" fold="1" page="1" pageScale="1" pageWidth="827" pageHeight="1169" math="0" shadow="0">
      <root>
        <mxCell id="0" />
        <mxCell id="1" parent="0" />
        <mxCell id="6dwihKLF_EUM9_9mZloD-40" value="" style="edgeStyle=orthogonalEdgeStyle;rounded=0;orthogonalLoop=1;jettySize=auto;html=1;" edge="1" parent="1" source="6dwihKLF_EUM9_9mZloD-1" target="6dwihKLF_EUM9_9mZloD-10">
          <mxGeometry relative="1" as="geometry" />
        </mxCell>
        <mxCell id="6dwihKLF_EUM9_9mZloD-44" value="" style="edgeStyle=orthogonalEdgeStyle;rounded=0;orthogonalLoop=1;jettySize=auto;html=1;entryX=0;entryY=0.5;entryDx=0;entryDy=0;" edge="1" parent="1" source="6dwihKLF_EUM9_9mZloD-1" target="6dwihKLF_EUM9_9mZloD-20">
          <mxGeometry relative="1" as="geometry">
            <mxPoint x="70" y="261" as="targetPoint" />
          </mxGeometry>
        </mxCell>
        <mxCell id="6dwihKLF_EUM9_9mZloD-1" value="R(s)" style="text;html=1;align=center;verticalAlign=middle;resizable=0;points=[];autosize=1;strokeColor=none;fillColor=none;" vertex="1" parent="1">
          <mxGeometry x="45" y="326" width="50" height="30" as="geometry" />
        </mxCell>
        <mxCell id="6dwihKLF_EUM9_9mZloD-45" style="edgeStyle=orthogonalEdgeStyle;rounded=0;orthogonalLoop=1;jettySize=auto;html=1;exitX=1;exitY=0.5;exitDx=0;exitDy=0;entryX=0;entryY=0.5;entryDx=0;entryDy=0;" edge="1" parent="1" source="6dwihKLF_EUM9_9mZloD-10" target="6dwihKLF_EUM9_9mZloD-16">
          <mxGeometry relative="1" as="geometry" />
        </mxCell>
        <mxCell id="6dwihKLF_EUM9_9mZloD-10" value="控制器&lt;div&gt;Gc(s)&lt;/div&gt;" style="whiteSpace=wrap;html=1;" vertex="1" parent="1">
          <mxGeometry x="170" y="324.5" width="80" height="33" as="geometry" />
        </mxCell>
        <mxCell id="6dwihKLF_EUM9_9mZloD-19" value="" style="edgeStyle=orthogonalEdgeStyle;rounded=0;orthogonalLoop=1;jettySize=auto;html=1;" edge="1" parent="1" source="6dwihKLF_EUM9_9mZloD-16" target="6dwihKLF_EUM9_9mZloD-18">
          <mxGeometry relative="1" as="geometry">
            <Array as="points">
              <mxPoint x="510" y="340" />
              <mxPoint x="510" y="340" />
            </Array>
          </mxGeometry>
        </mxCell>
        <mxCell id="6dwihKLF_EUM9_9mZloD-16" value="功率转换器&lt;div&gt;Gpc(s)&lt;/div&gt;" style="whiteSpace=wrap;html=1;" vertex="1" parent="1">
          <mxGeometry x="330" y="322.5" width="90" height="37" as="geometry" />
        </mxCell>
        <mxCell id="6dwihKLF_EUM9_9mZloD-47" style="edgeStyle=orthogonalEdgeStyle;rounded=0;orthogonalLoop=1;jettySize=auto;html=1;exitX=1;exitY=0.5;exitDx=0;exitDy=0;" edge="1" parent="1" source="6dwihKLF_EUM9_9mZloD-18">
          <mxGeometry relative="1" as="geometry">
            <mxPoint x="630" y="340.8571428571429" as="targetPoint" />
            <Array as="points">
              <mxPoint x="600" y="341" />
              <mxPoint x="600" y="341" />
            </Array>
          </mxGeometry>
        </mxCell>
        <mxCell id="6dwihKLF_EUM9_9mZloD-56" style="edgeStyle=orthogonalEdgeStyle;rounded=0;orthogonalLoop=1;jettySize=auto;html=1;exitX=0.5;exitY=1;exitDx=0;exitDy=0;entryX=0;entryY=0.5;entryDx=0;entryDy=0;" edge="1" parent="1" source="6dwihKLF_EUM9_9mZloD-18" target="6dwihKLF_EUM9_9mZloD-53">
          <mxGeometry relative="1" as="geometry" />
        </mxCell>
        <mxCell id="6dwihKLF_EUM9_9mZloD-18" value="受控场&lt;div&gt;Gp(s)&lt;/div&gt;" style="whiteSpace=wrap;html=1;" vertex="1" parent="1">
          <mxGeometry x="490" y="322.5" width="85" height="37" as="geometry" />
        </mxCell>
        <mxCell id="6dwihKLF_EUM9_9mZloD-60" value="" style="edgeStyle=orthogonalEdgeStyle;rounded=0;orthogonalLoop=1;jettySize=auto;html=1;" edge="1" parent="1" source="6dwihKLF_EUM9_9mZloD-20" target="6dwihKLF_EUM9_9mZloD-58">
          <mxGeometry relative="1" as="geometry" />
        </mxCell>
        <mxCell id="6dwihKLF_EUM9_9mZloD-20" value="Gf(s)" style="whiteSpace=wrap;html=1;" vertex="1" parent="1">
          <mxGeometry x="140" y="240" width="80" height="33" as="geometry" />
        </mxCell>
        <mxCell id="6dwihKLF_EUM9_9mZloD-37" value="" style="edgeStyle=orthogonalEdgeStyle;rounded=0;orthogonalLoop=1;jettySize=auto;html=1;" edge="1" parent="1" source="6dwihKLF_EUM9_9mZloD-33" target="6dwihKLF_EUM9_9mZloD-18">
          <mxGeometry relative="1" as="geometry" />
        </mxCell>
        <mxCell id="6dwihKLF_EUM9_9mZloD-33" value="D(s)" style="text;html=1;align=center;verticalAlign=middle;resizable=0;points=[];autosize=1;strokeColor=none;fillColor=none;" vertex="1" parent="1">
          <mxGeometry x="430" y="260" width="50" height="30" as="geometry" />
        </mxCell>
        <mxCell id="6dwihKLF_EUM9_9mZloD-42" value="" style="edgeStyle=orthogonalEdgeStyle;rounded=0;orthogonalLoop=1;jettySize=auto;html=1;" edge="1" parent="1" source="6dwihKLF_EUM9_9mZloD-1" target="6dwihKLF_EUM9_9mZloD-10">
          <mxGeometry relative="1" as="geometry">
            <mxPoint x="95" y="341" as="sourcePoint" />
            <mxPoint x="160" y="341" as="targetPoint" />
            <Array as="points">
              <mxPoint x="120" y="340" />
              <mxPoint x="120" y="340" />
            </Array>
          </mxGeometry>
        </mxCell>
        <mxCell id="6dwihKLF_EUM9_9mZloD-48" value="Y(s)" style="text;html=1;align=center;verticalAlign=middle;resizable=0;points=[];autosize=1;strokeColor=none;fillColor=none;" vertex="1" parent="1">
          <mxGeometry x="620" y="326" width="50" height="30" as="geometry" />
        </mxCell>
        <mxCell id="6dwihKLF_EUM9_9mZloD-57" style="edgeStyle=orthogonalEdgeStyle;rounded=0;orthogonalLoop=1;jettySize=auto;html=1;exitX=1;exitY=0.5;exitDx=0;exitDy=0;" edge="1" parent="1" source="6dwihKLF_EUM9_9mZloD-53">
          <mxGeometry relative="1" as="geometry">
            <mxPoint x="140" y="340" as="targetPoint" />
          </mxGeometry>
        </mxCell>
        <mxCell id="6dwihKLF_EUM9_9mZloD-53" value="-1" style="triangle;whiteSpace=wrap;html=1;direction=west;" vertex="1" parent="1">
          <mxGeometry x="310" y="390" width="20" height="30" as="geometry" />
        </mxCell>
        <mxCell id="6dwihKLF_EUM9_9mZloD-58" value="Kf" style="triangle;whiteSpace=wrap;html=1;direction=east;" vertex="1" parent="1">
          <mxGeometry x="280" y="236.5" width="30" height="40" as="geometry" />
        </mxCell>
        <mxCell id="6dwihKLF_EUM9_9mZloD-61" style="edgeStyle=orthogonalEdgeStyle;rounded=0;orthogonalLoop=1;jettySize=auto;html=1;exitX=1;exitY=0.5;exitDx=0;exitDy=0;entryX=0.465;entryY=0.017;entryDx=0;entryDy=0;entryPerimeter=0;" edge="1" parent="1" source="6dwihKLF_EUM9_9mZloD-58" target="6dwihKLF_EUM9_9mZloD-16">
          <mxGeometry relative="1" as="geometry" />
        </mxCell>
      </root>
    </mxGraphModel>
  </diagram>
</mxfile>
